HIERARCHY
ROOT Hips
{
  OFFSET 0 0 0
  CHANNELS 6 Xposition Yposition Zposition Zrotation Xrotation Yrotation
  JOINT LeftUpLeg
  {
    OFFSET 4.06525 -3.90732 0.41711
    CHANNELS 3 Zrotation Xrotation Yrotation
    JOINT LeftLeg
    {
      OFFSET 0.00023 -18.4821 0.00367
      CHANNELS 3 Zrotation Xrotation Yrotation
      JOINT LeftFoot
      {
        OFFSET -0.00172 -15.2898 -0.02629
        CHANNELS 3 Zrotation Xrotation Yrotation
        JOINT LeftToeBase
        {
          OFFSET 0.36743 -3.19131 5.54287
          CHANNELS 3 Zrotation Xrotation Yrotation
          JOINT LeftToeBase2
          {
            OFFSET 0.08751 0.04849 1.36758
            CHANNELS 3 Zrotation Xrotation Yrotation
            JOINT LeftToeBase3
            {
              OFFSET 0.07484 0.06785 1.16707
            }
          }
        }
      }
    }
  }
  JOINT RightUpLeg
  {
    OFFSET -4.06526 -3.90731 0.41712
    CHANNELS 3 Zrotation Xrotation Yrotation
    JOINT RightLeg
    {
      OFFSET -0.00029 -18.4821 0.0044
      CHANNELS 3 Zrotation Xrotation Yrotation
      JOINT RightFoot
      {
        OFFSET 0.0016 -15.2898 -0.02569
        CHANNELS 3 Zrotation Xrotation Yrotation
        JOINT RightToeBase
        {
          OFFSET -0.3542 -3.19109 5.54386
          CHANNELS 3 Zrotation Xrotation Yrotation
          JOINT RightToeBase2
          {
            OFFSET -0.08424 0.04854 1.36778
            CHANNELS 3 Zrotation Xrotation Yrotation
            JOINT RightToeBase3
            {
              OFFSET -0.07205 0.0679 1.16725
            }
          }
        }
      }
    }
  }
  JOINT Spine
  {
    OFFSET 1e-005 4.46517 -0.10224
    CHANNELS 3 Zrotation Xrotation Yrotation
    JOINT Spine1
    {
      OFFSET 1e-005 4.46212 -0.1824
      CHANNELS 3 Zrotation Xrotation Yrotation
      JOINT Spine2
      {
        OFFSET 0 4.37937 -0.881
        CHANNELS 3 Zrotation Xrotation Yrotation
        JOINT Spine3
        {
          OFFSET 1e-005 4.68286 0.21414
          CHANNELS 3 Zrotation Xrotation Yrotation
          JOINT Neck
          {
            OFFSET 0 1.76964 0.82454
            CHANNELS 3 Zrotation Xrotation Yrotation
            JOINT Head
            {
              OFFSET 0 1.6961 0.93145
              CHANNELS 3 Zrotation Xrotation Yrotation
              JOINT Head_End
              {
                OFFSET 1e-005 7.8375 1.52603
              }
            }
          }
          JOINT LeftShoulder
          {
            OFFSET 1.19381 -0.75881 -0.02768
            CHANNELS 3 Zrotation Xrotation Yrotation
            JOINT LeftArm
            {
              OFFSET 5.18779 -2e-005 1e-005
              CHANNELS 3 Zrotation Xrotation Yrotation
              JOINT LeftForeArm
              {
                OFFSET 12.7364 -4e-005 2e-005
                CHANNELS 3 Zrotation Xrotation Yrotation
                JOINT LeftHand
                {
                  OFFSET 9.21452 -2e-005 1e-005
                  CHANNELS 3 Zrotation Xrotation Yrotation
                }
              }
            }
          }
          JOINT RightShoulder
          {
            OFFSET -1.19381 -0.75881 -0.02767
            CHANNELS 3 Zrotation Xrotation Yrotation
            JOINT RightArm
            {
              OFFSET -5.18779 1e-005 -1e-005
              CHANNELS 3 Zrotation Xrotation Yrotation
              JOINT RightForeArm
              {
                OFFSET -12.7364 3e-005 -2e-005
                CHANNELS 3 Zrotation Xrotation Yrotation
                JOINT RightHand
                {
                  OFFSET -9.21452 2e-005 -1e-005
                  CHANNELS 3 Zrotation Xrotation Yrotation
                }
              }
            }
          }
        }
      }
    }
  }
}
MOTION
Frames: 10
Frame Time: 	0.0166667
0.300144 40.1913 -0.425981 -22.5235 22.0863 55.1895 -4.01353 -39.341 -24.8599  -0.381755 4.59321 -0.0960309  -2.28813 1.08034 -24.3899  0.00335903 -2.90262 -0.354156  -0 0 -0   -9.44289 -29.4137 -44.0376  1.01189 23.3104 -0.345563  5.3827 -21.3313 -6.27395  -0.0164487 -0.298937 -0.00838349  -0 0 -0   0.841472 3.57906 2.996  -2.6855 7.28278 4.05743  -2.69834 7.26157 4.08827  -2.71614 7.23983 4.11659  -2.69915 7.14045 -2.12756  3.03342 -37.2546 -7.74705   -24.4252 1.42843 0.24941  -43.837 33.887 -6.91445  4.31924 -1.88273 -11.8568  -0.638396 -8.10074 -2.28055  6.12474 -11.5068 29.4292  -12.92 12.7902 48.6629  -1.39317 -0.419762 4.42137  -0.107073 -0.996006 0.440923 
0.307537 40.1697 -0.403323 -22.9944 22.3866 55.5781 -4.23677 -39.9545 -25.2999  -0.396916 4.72278 -0.0921856  -2.29169 1.04132 -24.2655  0.0055142 -2.71092 -0.330745  -0 0 -0   -9.69928 -29.9799 -44.4772  1.02984 23.569 -0.355433  5.39792 -21.4709 -6.2094  -0.0170787 -0.261659 -0.00877035  -0 0 -0   0.843774 3.5523 3.00928  -2.69022 7.22429 4.03449  -2.70282 7.20313 4.06522  -2.72034 7.18142 4.09346  -2.59174 7.0906 -2.39458  3.15311 -37.2563 -7.72152   -24.352 1.41615 0.392111  -43.9259 33.9849 -7.04861  4.32584 -1.88646 -11.8756  -0.660203 -7.8164 -2.00973  6.22966 -11.6146 29.3928  -13.1323 13.049 48.8869  -1.34068 -0.401801 4.25304  -0.119439 -1.16272 0.537562 
0.311717 40.1615 -0.405146 -23.056 22.4087 55.6321 -4.25737 -40.0253 -25.3677  -0.400616 4.75389 -0.0916312  -2.30627 1.02602 -24.2234  0.00457965 -2.77874 -0.339028  -0 0 -0   -9.75612 -30.0624 -44.5839  1.04071 23.701 -0.366309  5.36647 -21.5327 -6.18291  -0.0176858 -0.257662 -0.00915336  -0 0 -0   0.843165 3.60709 3.0204  -2.69847 7.33052 4.05505  -2.71114 7.30921 4.08642  -2.72889 7.28731 4.11528  -2.56921 7.07956 -2.37968  3.26238 -37.4158 -7.74179   -24.4242 1.2682 0.322996  -43.8608 34.0708 -7.04746  4.34471 -1.89714 -11.9298  -0.697087 -8.13217 -2.1164  6.21332 -11.4708 29.4752  -13.1242 12.7655 48.7635  -1.33792 -0.400859 4.24418  -0.21144 -1.10622 0.561364 
0.317412 40.1544 -0.401759 -23.1253 22.433 55.7022 -4.29219 -40.1011 -25.4443  -0.404901 4.79114 -0.0907488  -2.29246 0.956387 -24.2034  0.00493944 -2.73549 -0.333746  -0 0 -0   -9.82723 -30.1474 -44.7247  1.05192 23.835 -0.376273  5.34691 -21.5861 -6.1326  -0.0182602 -0.227652 -0.00953156  -0 0 -0   0.84489 3.65381 3.02863  -2.70109 7.42032 4.06972  -2.7138 7.39889 4.10168  -2.73171 7.37686 4.1311  -2.53289 7.03038 -2.39128  3.36036 -37.5331 -7.74364   -24.4798 1.13183 0.25558  -43.813 34.1605 -7.04645  4.35211 -1.90133 -11.951  -0.675356 -7.84484 -2.0346  6.26251 -11.4917 29.5745  -13.2316 12.7704 48.7049  -1.34197 -0.400151 4.25669  -0.231025 -1.14455 0.50066 
0.339653 40.1361 -0.398393 -23.5179 22.6701 56.0921 -4.57215 -40.6004 -25.7071  -0.417828 4.90254 -0.0897636  -2.07341 1.00472 -24.3815  0.00295887 -2.88811 -0.352384  -0 0 -0   -10.1148 -30.5645 -45.131  1.06704 24.0457 -0.35868  5.63366 -21.7608 -6.07425  -0.0188291 -0.334818 -0.00990416  -0 0 -0   0.864777 3.60346 3.03659  -2.66882 7.31626 4.04283  -2.68128 7.29494 4.07448  -2.69884 7.27301 4.10365  -2.61875 7.12321 -1.93975  3.34972 -37.3858 -8.23708   -24.5136 1.45966 0.309403  -43.7152 34.1237 -7.23032  4.35189 -1.90121 -11.9504  -0.820364 -7.69029 -2.07049  6.19429 -11.0556 29.3653  -13.4092 12.5539 48.7605  -1.36132 -0.399291 4.31696  -0.0612011 -1.20512 0.323337 
0.342345 40.1245 -0.392144 -23.5561 22.6841 56.1192 -4.55998 -40.6129 -25.6955  -0.416394 4.8885 -0.0886757  -2.22882 0.876174 -24.3527  0.00339966 -2.83892 -0.346378  -0 0 -0   -10.1505 -30.5908 -45.2755  1.07048 24.095 -0.380829  5.42137 -21.7619 -5.99986  -0.0193487 -0.324576 -0.01027  -0 0 -0   0.865863 3.63518 3.044  -2.67743 7.37971 4.05234  -2.69001 7.35828 4.08437  -2.70778 7.33623 4.1139  -2.56808 7.1501 -2.08019  3.46959 -37.5158 -8.17002   -24.5156 1.41227 0.286746  -43.6978 34.1506 -7.22313  4.37042 -1.91173 -12.0036  -0.66406 -8.06615 -2.22869  6.19706 -11.0802 29.4383  -13.4295 12.5804 48.7764  -1.3435 -0.398465 4.26107  -0.147241 -1.17064 0.38733 
0.345171 40.1177 -0.385791 -23.5961 22.6927 56.1497 -4.54669 -40.6387 -25.6729  -0.416346 4.87729 -0.0875295  -2.26233 0.835651 -24.3902  0.00339075 -2.82899 -0.344453  -0 0 -0   -10.1925 -30.628 -45.3994  1.07784 24.1912 -0.379716  5.46452 -21.8067 -5.91059  -0.0198448 -0.350394 -0.0106284  -0 0 -0   0.872064 3.66354 3.05272  -2.68108 7.43654 4.06106  -2.69377 7.41497 4.0935  -2.71293 7.39279 4.12341  -2.53768 7.13109 -2.14175  3.53457 -37.5894 -8.1076   -24.5262 1.39879 0.289773  -43.6483 34.0453 -7.28251  4.38228 -1.91847 -12.0376  -0.609381 -8.12296 -2.20761  6.21877 -11.1133 29.4923  -13.4478 12.6032 48.7769  -1.33919 -0.397693 4.2474  -0.163127 -1.08648 0.407458 
0.34763 40.1124 -0.382802 -23.6345 22.7014 56.1832 -4.54978 -40.669 -25.6846  -0.416877 4.87281 -0.0863524  -2.30057 0.807893 -24.41  0.00330439 -2.82055 -0.34381  -0 0 -0   -10.234 -30.67 -45.4949  1.08432 24.2808 -0.380485  5.4744 -21.84 -5.83148  -0.0203038 -0.341231 -0.0109782  -0 0 -0   0.878228 3.6881 3.05848  -2.6817 7.48552 4.0648  -2.6945 7.46386 4.0976  -2.71483 7.44157 4.12785  -2.52031 7.11338 -2.1827  3.57249 -37.6452 -8.09067   -24.5354 1.34454 0.274554  -43.6172 34.053 -7.2806  4.39505 -1.92574 -12.0743  -0.565743 -8.29194 -2.23447  6.25148 -11.164 29.5273  -13.4713 12.6435 48.7748  -1.34178 -0.397084 4.25537  -0.259519 -1.28183 0.40011 
0.360877 40.102 -0.3816 -23.8671 22.8495 56.427 -4.73077 -40.9551 -25.9978  -0.417711 4.90631 -0.0851754  -2.21785 0.844502 -24.3516  0.00275128 -2.88069 -0.344201  -0 0 -0   -10.464 -30.9428 -45.8606  1.10076 24.4964 -0.382469  5.54483 -21.9457 -5.7422  -0.0207238 -0.293973 -0.0113185  -0 0 -0   0.899068 3.66567 3.07103  -2.67355 7.44069 4.04844  -2.68634 7.41896 4.08128  -2.70447 7.39659 4.11157  -2.5053 7.02509 -2.14994  3.58911 -37.5675 -8.14977   -24.5655 1.30682 0.315337  -43.5783 34.1297 -7.2667  4.41839 -1.93906 -12.1413  -0.498072 -7.90053 -2.21431  6.28448 -11.1647 29.3464  -13.357 12.5709 48.8207  -1.36039 -0.396727 4.31345  -0.224375 -1.14489 0.393736 
0.36126 40.0966 -0.379041 -23.883 22.8607 56.434 -4.73323 -40.9647 -25.9945  -0.418732 4.90349 -0.084016  -2.2544 0.791143 -24.3592  0.00266821 -2.8558 -0.34531  -0 0 -0   -10.4693 -30.9481 -45.8766  1.10796 24.496 -0.384125  5.49716 -21.9749 -5.71328  -0.0211305 -0.341015 -0.0116487  -0 0 -0   0.898911 3.67904 3.07275  -2.67425 7.46749 4.05149  -2.68708 7.44574 4.08446  -2.7045 7.42335 4.11488  -2.49856 7.03351 -2.21405  3.59813 -37.6123 -8.18456   -24.5583 1.30401 0.303672  -43.567 34.1029 -7.28334  4.41146 -1.94492 -12.1269  -0.490943 -7.86883 -2.13149  6.27011 -11.1021 29.3657  -13.3128 12.4758 48.8254  -1.3516 -0.396792 4.28599  -0.196078 -1.26683 0.25367 
